<svg xmlns="http://www.w3.org/2000/svg" viewBox="0 0 1200 1200" role="img" aria-label="Telephone">
  <defs>
    <radialGradient id="space-phone" cx="50%" cy="45%" r="70%">
      <stop offset="0%" stop-color="#0d0f16"/>
      <stop offset="60%" stop-color="#05060a"/>
      <stop offset="100%" stop-color="#020305"/>
    </radialGradient>
    <linearGradient id="steel" x1="0%" y1="0%" x2="100%" y2="100%">
      <stop offset="0%" stop-color="#f3f5f8"/>
      <stop offset="30%" stop-color="#d8dce4"/>
      <stop offset="60%" stop-color="#7f8594"/>
      <stop offset="100%" stop-color="#d8dce4"/>
    </linearGradient>
    <linearGradient id="steel-dark" x1="0%" y1="0%" x2="100%" y2="0%">
      <stop offset="0%" stop-color="#5f6676"/>
      <stop offset="50%" stop-color="#abb2c0"/>
      <stop offset="100%" stop-color="#5f6676"/>
    </linearGradient>
  </defs>
  <rect width="1200" height="1200" fill="url(#space-phone)"/>
  <g opacity="0.8">
    <circle cx="160" cy="220" r="2" fill="#b9c2ff"/>
    <circle cx="320" cy="180" r="1.5" fill="#fff2d9"/>
    <circle cx="520" cy="120" r="2.2" fill="#ffe6c7"/>
    <circle cx="820" cy="210" r="1.3" fill="#ffffff"/>
    <circle cx="1010" cy="160" r="2" fill="#dbe3ff"/>
    <circle cx="260" cy="440" r="1.5" fill="#ffffff"/>
    <circle cx="600" cy="400" r="2" fill="#ffe6c7"/>
    <circle cx="920" cy="430" r="1.6" fill="#fff2d9"/>
    <circle cx="760" cy="340" r="1.2" fill="#e2e7ff"/>
    <circle cx="430" cy="300" r="1.4" fill="#f8f8ff"/>
    <circle cx="220" cy="700" r="1.7" fill="#f8f8ff"/>
    <circle cx="480" cy="760" r="2.1" fill="#fff2d9"/>
    <circle cx="720" cy="820" r="1.4" fill="#ffffff"/>
    <circle cx="1020" cy="720" r="1.8" fill="#e2e7ff"/>
    <circle cx="860" cy="600" r="1.2" fill="#ffffff"/>
    <circle cx="620" cy="640" r="1.5" fill="#dbe3ff"/>
    <circle cx="340" cy="620" r="1.2" fill="#ffffff"/>
    <circle cx="520" cy="980" r="1.9" fill="#ffe6c7"/>
    <circle cx="860" cy="980" r="1.5" fill="#ffffff"/>
    <circle cx="240" cy="940" r="1.3" fill="#dbe3ff"/>
  </g>
  <g transform="translate(210 250)">
    <path d="M220 140 C260 60 520 60 560 140 L600 220 C620 260 590 310 550 310 L230 310 C190 310 160 260 180 220 Z" fill="url(#steel)" stroke="rgba(255,255,255,0.3)" stroke-width="6" stroke-linejoin="round"/>
    <rect x="220" y="300" width="380" height="360" rx="45" ry="45" fill="url(#steel)" stroke="rgba(255,255,255,0.2)" stroke-width="8"/>
    <rect x="250" y="340" width="320" height="220" rx="22" ry="22" fill="url(#steel-dark)" stroke="rgba(255,255,255,0.2)" stroke-width="4"/>
    <circle cx="410" cy="520" r="90" fill="url(#steel)" stroke="rgba(255,255,255,0.2)" stroke-width="8"/>
    <circle cx="410" cy="520" r="56" fill="#0d1016" stroke="rgba(255,255,255,0.35)" stroke-width="6"/>
    <path d="M390 540 L390 500 L430 520 Z" fill="#e8ecf3"/>
    <path d="M410 470 C430 470 450 490 450 520 C450 550 430 570 410 570" fill="none" stroke="#e8ecf3" stroke-width="10" stroke-linecap="round"/>
    <rect x="320" y="650" width="180" height="40" rx="10" ry="10" fill="url(#steel-dark)" opacity="0.8"/>
    <path d="M620 330 Q720 420 620 520" fill="none" stroke="url(#steel)" stroke-width="12" stroke-linecap="round" opacity="0.85"/>
    <path d="M200 330 Q100 420 200 520" fill="none" stroke="url(#steel)" stroke-width="12" stroke-linecap="round" opacity="0.85"/>
  </g>
  <text x="600" y="1080" fill="#dbe3ff" font-family="Arial, sans-serif" font-size="70" text-anchor="middle" letter-spacing="6">TELEPHONE</text>
</svg>
